<?xml version="1.0" encoding="utf-8"?>
<!-- Generator: Adobe Illustrator 26.2.1, SVG Export Plug-In . SVG Version: 6.00 Build 0)  -->
<svg version="1.1" id="Layer_1" xmlns="http://www.w3.org/2000/svg" xmlns:xlink="http://www.w3.org/1999/xlink" x="0px" y="0px"
	 viewBox="0 0 1026.9 501.9" style="enable-background:new 0 0 1026.9 501.9;" xml:space="preserve">
<style type="text/css">
	.st0{fill:#F7931E;}
	.st1{fill:#FFFFFF;}
	.st2{display:none;}
	.st3{display:inline;}
</style>
<g>
	<g>
		<path class="st0" d="M92.3,68.5c-21.7,0-39.6,17.9-39.6,39.6v237.5c0,21.7,17.9,39.6,39.6,39.6h211.2h13.2v-13.2V81.7V68.5h-13.2
			H92.3z M92.3,94.9h198v211.2h-198c-4.7,0-9,1-13.2,2.5V108.1C79.1,100.7,84.8,94.9,92.3,94.9z M118.7,134.5v26.4h145.2v-26.4
			H118.7z M92.3,332.5h198v26.4h-198c-7.5,0-13.2-5.7-13.2-13.2S84.8,332.5,92.3,332.5z"/>
		<g>
			<path class="st0" d="M149.6,177.8l55.9,109.3h-80.1c-3.7,0-6.8-3-6.8-6.8v-95.8c0-3.7,3-6.8,6.8-6.8H149.6z"/>
			<path class="st0" d="M263.8,218.7v27.6c0,22.1-17.8,40.3-39.8,40.8l-55.9-109.3H223C245.5,177.8,263.8,196.2,263.8,218.7z"/>
		</g>
	</g>
	<g>
		<g>
			<path class="st0" d="M370.2,70.2h52.6c12.7,0,21.4,3.2,26.1,9.6c4.7,6.4,7.1,17.8,7.1,34.1v11.9c0,16.3-2.4,27.7-7.1,34.1
				c-4.7,6.4-13.4,9.6-26.1,9.6h-52.6V70.2z M396.3,91.9v56.2h25c3.2,0,5.5-1.4,6.7-4.1c1.2-2.7,1.8-6.9,1.8-12.7v-22.7
				c0-5.9-0.6-10.1-1.8-12.8c-1.2-2.7-3.5-4-6.7-4H396.3z"/>
			<path class="st0" d="M472.1,70.2H498v99.5h-25.9V70.2z"/>
			<path class="st0" d="M558.2,68.8c7.3,0,13.3,0.4,18.1,1.2c4.8,0.8,8.7,1.9,11.8,3.3c3.1,1.4,5.4,3.5,6.9,6.4
				c1.6,2.8,2.6,5.9,3.2,9.2c0.6,3.3,0.9,7.6,0.9,13v1.4h-23.9c0.1-0.3,0.1-1.2,0.1-2.5c-0.1-4.3-1.2-7.1-3.3-8.5
				c-2.1-1.4-6.8-2-14.2-2c-7.8,0-12.7,0.9-14.7,2.8c-2,1.8-3,6.3-3,13.5v26.2c0,5.9,0.7,9.8,2.2,11.9c1.5,2.1,4.3,3.1,8.4,3.1h24.9
				v-13.2h-15.9v-21.2H600v56.5h-50.5c-5.2,0-9.6-0.3-13.2-0.9c-3.5-0.6-6.7-1.6-9.4-3.1c-2.8-1.5-4.9-3.4-6.5-5.7
				c-1.6-2.3-2.9-5.4-3.9-9.3c-1-3.9-1.7-8.3-2-13c-0.3-4.7-0.5-10.6-0.5-17.7c0-7.6,0.2-13.7,0.5-18.3c0.3-4.6,1-9.1,2.2-13.3
				c1.1-4.2,2.6-7.4,4.5-9.6c1.8-2.2,4.5-4.1,7.9-5.8c3.4-1.7,7.4-2.8,12-3.3C545.5,69.1,551.3,68.8,558.2,68.8z"/>
			<path class="st0" d="M617.3,70.2h25.9v99.5h-25.9V70.2z"/>
			<path class="st0" d="M660.5,70.2h71v22h-45v17.8h42.2V132h-42.2v37.7h-26.1V70.2z"/>
			<path class="st0" d="M744.3,70.2h25.9v99.5h-25.9V70.2z"/>
			<path class="st0" d="M787.5,70.2h26.1v77.1h41v22.4h-67.1V70.2z"/>
			<path class="st0" d="M865.9,70.2h71.8v23.1h-47.3v13.8h45.9v20.8h-45.9v19h47.7v22.8h-72.2V70.2z"/>
			<path d="M370.4,181.7h17.7l28,67l28.6-67h17v82.9h-11.6v-65.8l-28.6,65.8h-12l-27.6-65.8v65.8h-11.5V181.7z"/>
			<path d="M501.7,181.7h15.1l29.4,82.9h-13l-6.8-19.8h-35.2l-7,19.8h-12.9L501.7,181.7z M509.1,194.5l-14.2,40.1h28L509.1,194.5z"
				/>
			<path d="M556.4,181.7h16.8l42.7,63.8v-63.8h11.4v82.9h-15.2l-44.6-66.8v66.8h-11.1V181.7z"/>
			<path d="M667.8,181.7h15.1l29.4,82.9h-13l-6.8-19.8h-35.2l-7,19.8h-12.9L667.8,181.7z M675.2,194.5L661,234.6h28L675.2,194.5z"/>
			<path d="M754.9,180.5c7,0,12.7,0.5,17,1.6c4.4,1.1,7.7,2.8,9.9,5.3c2.3,2.5,3.8,5.3,4.5,8.4c0.7,3.1,1.1,7.2,1.1,12.3v1.2h-12.1
				c0.1-0.3,0.1-0.8,0.1-1.6c-0.1-3.9-0.6-7-1.5-9.1c-0.9-2.1-2.9-3.9-6-5.1c-3.1-1.3-7.5-1.9-13.2-1.9c-4.9,0-8.7,0.4-11.6,1.2
				c-2.8,0.8-5,2.3-6.5,4.5c-1.5,2.2-2.4,4.7-2.8,7.4c-0.4,2.7-0.6,6.6-0.6,11.6v13.3c0,9.1,1.1,15.4,3.3,18.8
				c2.2,3.4,7,5.1,14.4,5.1h24.8v-22h-18.8v-10.7h31.1v43.8h-37.8c-5.4,0-9.8-0.5-13.4-1.4c-3.5-0.9-6.4-2.3-8.7-4.1
				c-2.3-1.8-4-4.4-5.2-8c-1.2-3.5-1.9-7.4-2.3-11.6c-0.4-4.2-0.6-9.7-0.6-16.4c0-5,0.1-9.2,0.3-12.5c0.2-3.3,0.5-6.6,1.1-9.8
				s1.3-5.9,2.3-7.9c1-2,2.4-3.8,4-5.6c1.7-1.8,3.8-3.1,6.3-4c2.5-0.9,5.5-1.6,8.8-2.1C746.3,180.8,750.3,180.5,754.9,180.5z"/>
			<path d="M802.6,181.7H859v11.7H815v22.3h42.8v10.6H815V253h44.2v11.6h-56.7V181.7z"/>
			<path d="M872.8,181.7h38.8c9,0,15.6,1.6,19.6,4.7c4,3.1,6.1,9,6.1,17.5v2.5c0,6.6-1.2,11.3-3.6,14c-2.4,2.7-6.2,4.5-11.5,5.2
				c2.5,0.3,4.5,0.7,6.1,1.1c1.6,0.5,3.1,1.3,4.5,2.3c1.4,1.1,2.4,2.6,3.1,4.5c0.7,1.9,1,4.4,1,7.3v9.1c0,5.7,0.4,10.6,1.3,14.6
				h-12.8c-0.9-3.3-1.3-7.8-1.3-13.4v-9.1c0-4.1-0.9-6.9-2.8-8.5c-1.9-1.6-5.4-2.4-10.6-2.4h-25.1v33.4h-12.7V181.7z M885.5,192.7
				V221h25.1c5.1,0,8.6-1,10.5-2.9c1.9-2,2.9-5.3,2.9-9.9v-2.9c0-4.5-1-7.7-3-9.6c-2-1.9-5.3-2.8-10-2.8H885.5z"/>
		</g>
		<g>
			<path class="st0" d="M924.5,381.4H383.8c-7.5,0-13.6-6.1-13.6-13.6v-56.8c0-7.5,6.1-13.6,13.6-13.6h540.7
				c7.5,0,13.6,6.1,13.6,13.6v56.8C938.1,375.3,932,381.4,924.5,381.4z"/>
			<g>
				<path class="st1" d="M382.2,309.3h15.6v43.6c0,1.8,0.6,2.9,1.9,3.5c1.2,0.6,3.8,0.9,7.8,0.9s6.4-0.3,7.6-0.8
					c1.1-0.6,1.7-1.7,1.7-3.5v-43.6h15.8v43.6c0,3.7-0.3,6.6-0.9,8.8c-0.6,2.1-1.9,3.9-3.7,5.3c-1.9,1.4-4.4,2.3-7.5,2.8
					c-3.1,0.5-7.3,0.7-12.7,0.7c-5.5,0-9.8-0.2-12.9-0.7c-3.2-0.5-5.7-1.4-7.6-2.8c-1.9-1.4-3.2-3.1-3.9-5.3c-0.6-2.1-1-5-1-8.8
					V309.3z"/>
				<path class="st1" d="M442.1,309.3h32.8c3.4,0,6.2,0.3,8.3,0.9c2.1,0.6,3.7,1.7,4.9,3.4c1.2,1.6,1.9,3.6,2.3,5.8
					c0.4,2.3,0.6,5.3,0.6,9.2v3.7c0,3.6-0.2,6.5-0.6,8.6c-0.4,2.1-1.2,4-2.4,5.6c-1.2,1.6-3,2.7-5.2,3.3c-2.3,0.6-5.2,1-9,1H458
					v18.8h-15.8V309.3z M458,322.7v15.2h14.6c1.2,0,1.9-0.4,2.3-1.1c0.4-0.7,0.6-1.9,0.6-3.6v-5c0-2-0.2-3.4-0.6-4.2
					c-0.4-0.8-1.1-1.3-2.3-1.3H458z"/>
				<path class="st1" d="M495.1,309.3h46.2v13.6h-15.4v46.8h-15.7v-46.8h-15.2V309.3z"/>
				<path class="st1" d="M572.9,308.5c4.2,0,7.8,0.2,10.6,0.5c2.8,0.3,5.3,1,7.4,2.1c2.1,1,3.7,2.2,4.9,3.6c1.2,1.4,2.1,3.3,2.7,5.9
					c0.7,2.6,1.1,5.3,1.3,8c0.2,2.8,0.3,6.5,0.3,11c0,4.6-0.1,8.2-0.3,11c-0.2,2.8-0.6,5.5-1.3,8c-0.7,2.5-1.6,4.5-2.7,5.8
					c-1.1,1.3-2.8,2.5-4.9,3.5c-2.1,1-4.6,1.7-7.4,2c-2.8,0.3-6.4,0.5-10.6,0.5c-4.3,0-7.9-0.2-10.7-0.5c-2.8-0.3-5.3-1-7.4-2
					c-2.1-1-3.7-2.2-4.8-3.5c-1.1-1.3-2-3.3-2.7-5.9c-0.7-2.6-1.1-5.3-1.3-8c-0.2-2.8-0.3-6.4-0.3-11c0-3.4,0-6.3,0.1-8.6
					c0.1-2.3,0.3-4.5,0.6-6.8c0.3-2.3,0.7-4.1,1.3-5.5c0.5-1.4,1.3-2.7,2.2-4c1-1.3,2.1-2.3,3.3-3c1.3-0.7,2.9-1.3,4.8-1.9
					c1.9-0.6,4.1-0.9,6.4-1.1C566.9,308.5,569.7,308.5,572.9,308.5z M572.9,321.4c-4.8,0-7.9,0.7-9.2,2.2c-1.4,1.5-2.1,4.2-2.1,8.1
					V346c0,4.5,0.7,7.6,2.1,9.2c1.4,1.6,4.5,2.4,9.2,2.4c4.7,0,7.8-0.8,9.2-2.5c1.4-1.6,2.1-4.7,2.1-9.2v-14.2
					c0-3.9-0.7-6.6-2.1-8.1C580.7,322.2,577.6,321.4,572.9,321.4z"/>
				<path class="st1" d="M651.1,309.3h15.4v60.4h-15.3v-43.4l-9.5,8.8l-8.3-8.8L651.1,309.3z"/>
				<path class="st1" d="M706.1,308.5c3.6,0,6.6,0.2,9,0.5c2.4,0.3,4.5,1,6.4,2c1.8,1,3.2,2.2,4.3,3.5c1,1.4,1.8,3.3,2.4,5.8
					c0.6,2.5,1,5.2,1.2,8.1c0.2,2.9,0.3,6.6,0.3,11.1c0,4.5-0.1,8.2-0.3,11c-0.2,2.8-0.6,5.5-1.2,8c-0.6,2.5-1.4,4.5-2.4,5.8
					c-1,1.4-2.4,2.5-4.3,3.5c-1.8,1-4,1.7-6.4,2c-2.4,0.3-5.4,0.5-9,0.5c-2.7,0-5.1-0.1-7-0.3c-2-0.2-3.8-0.5-5.5-1.1
					c-1.6-0.5-3-1.1-4.1-1.8c-1.1-0.7-2.1-1.7-2.9-2.9c-0.8-1.3-1.5-2.6-2-4c-0.5-1.4-0.9-3.2-1.2-5.5c-0.3-2.2-0.5-4.5-0.6-6.8
					c-0.1-2.3-0.1-5.2-0.1-8.6c0-3.9,0.1-7.1,0.2-9.6c0.1-2.5,0.4-5,0.8-7.4c0.4-2.4,0.9-4.3,1.7-5.7c0.7-1.4,1.7-2.7,2.7-3.9
					c1.1-1.2,2.5-2.1,4.2-2.6c1.7-0.6,3.7-1,5.9-1.3C700.4,308.6,703,308.5,706.1,308.5z M706.1,321c-3.4,0-5.7,0.8-6.8,2.3
					c-1.1,1.5-1.6,4.4-1.6,8.8v14.4c0,4.5,0.5,7.5,1.6,9.1c1.1,1.6,3.3,2.4,6.8,2.4c3.5,0,5.8-0.8,6.9-2.5c1.1-1.6,1.6-4.7,1.6-9.1
					v-14.4c0-4.3-0.5-7.3-1.6-8.8C711.9,321.8,709.6,321,706.1,321z"/>
				<path class="st1" d="M757.9,308.5c3.6,0,6.6,0.2,9,0.5c2.4,0.3,4.5,1,6.4,2c1.8,1,3.2,2.2,4.3,3.5c1,1.4,1.8,3.3,2.4,5.8
					c0.6,2.5,1,5.2,1.2,8.1c0.2,2.9,0.3,6.6,0.3,11.1c0,4.5-0.1,8.2-0.3,11c-0.2,2.8-0.6,5.5-1.2,8c-0.6,2.5-1.4,4.5-2.4,5.8
					c-1,1.4-2.4,2.5-4.3,3.5c-1.8,1-4,1.7-6.4,2c-2.4,0.3-5.4,0.5-9,0.5c-2.7,0-5.1-0.1-7-0.3c-2-0.2-3.8-0.5-5.5-1.1
					c-1.6-0.5-3-1.1-4.1-1.8c-1.1-0.7-2.1-1.7-2.9-2.9c-0.8-1.3-1.5-2.6-2-4c-0.5-1.4-0.9-3.2-1.2-5.5c-0.3-2.2-0.5-4.5-0.6-6.8
					c-0.1-2.3-0.1-5.2-0.1-8.6c0-3.9,0.1-7.1,0.2-9.6c0.1-2.5,0.4-5,0.8-7.4c0.4-2.4,0.9-4.3,1.7-5.7c0.7-1.4,1.7-2.7,2.7-3.9
					c1.1-1.2,2.5-2.1,4.2-2.6c1.7-0.6,3.7-1,5.9-1.3C752.1,308.6,754.8,308.5,757.9,308.5z M757.9,321c-3.4,0-5.7,0.8-6.8,2.3
					c-1.1,1.5-1.6,4.4-1.6,8.8v14.4c0,4.5,0.5,7.5,1.6,9.1c1.1,1.6,3.3,2.4,6.8,2.4c3.5,0,5.8-0.8,6.9-2.5c1.1-1.6,1.6-4.7,1.6-9.1
					v-14.4c0-4.3-0.5-7.3-1.6-8.8C763.6,321.8,761.4,321,757.9,321z"/>
				<path class="st1" d="M839.1,308.5c4.4,0,8.1,0.2,11,0.7c2.9,0.5,5.3,1.1,7.2,2c1.9,0.8,3.3,2.1,4.2,3.9c1,1.7,1.6,3.6,1.9,5.6
					c0.3,2,0.5,4.6,0.5,7.9v0.9h-14.5c0.1-0.2,0.1-0.7,0.1-1.5c-0.1-2.6-0.7-4.3-2-5.1c-1.3-0.8-4.1-1.2-8.6-1.2
					c-4.7,0-7.7,0.6-8.9,1.7c-1.2,1.1-1.8,3.8-1.8,8.2v15.9c0,3.6,0.4,6,1.4,7.2c0.9,1.2,2.6,1.9,5.1,1.9h15.1v-8h-9.6v-12.9h24.4
					v34.3h-30.6c-3.2,0-5.8-0.2-8-0.5c-2.1-0.3-4.1-1-5.7-1.9c-1.7-0.9-3-2.1-3.9-3.5c-1-1.4-1.7-3.3-2.3-5.7c-0.6-2.4-1-5-1.2-7.9
					c-0.2-2.9-0.3-6.4-0.3-10.7c0-4.6,0.1-8.3,0.3-11.1c0.2-2.8,0.6-5.5,1.3-8.1c0.7-2.6,1.6-4.5,2.7-5.8c1.1-1.3,2.7-2.5,4.8-3.5
					s4.5-1.7,7.3-2C831.4,308.6,834.9,308.5,839.1,308.5z"/>
				<path class="st1" d="M874.5,309.3h34.8c2.9,0,5.3,0.3,7.4,1c2,0.7,3.6,1.4,4.7,2.3c1.1,0.9,1.9,2.1,2.5,3.7
					c0.6,1.5,0.9,2.9,1.1,4.1c0.1,1.2,0.2,2.7,0.2,4.5c0,4-0.6,7-1.7,9c-1.1,2-3.2,3.3-6.2,4c6,0.6,9,5.5,9,14.7
					c0,1.5,0,2.7-0.1,3.8c-0.1,1-0.2,2.2-0.5,3.5c-0.3,1.3-0.6,2.3-1,3.2c-0.4,0.9-1.1,1.7-1.9,2.6c-0.8,0.9-1.9,1.6-3,2.1
					c-1.2,0.5-2.6,0.9-4.3,1.3c-1.7,0.3-3.7,0.5-5.9,0.5h-34.9V309.3z M890.3,322.4v10.7h16.2c1.3,0,2.1-0.3,2.5-1
					c0.4-0.7,0.6-2,0.6-4.1v-1.1c0-1.8-0.2-2.9-0.6-3.6c-0.4-0.6-1.2-1-2.4-1H890.3z M890.3,344.2v12.6h16.3c1.6,0,2.6-0.3,3-0.8
					c0.4-0.5,0.6-1.7,0.6-3.6v-2.9c0-2.1-0.2-3.5-0.7-4.2c-0.5-0.7-1.4-1.1-2.9-1.1H890.3z"/>
			</g>
		</g>
	</g>
</g>
</svg>
