<?xml version="1.0" encoding="utf-8"?>
<!-- Generator: Adobe Illustrator 26.2.1, SVG Export Plug-In . SVG Version: 6.00 Build 0)  -->
<svg version="1.1" id="Layer_1" xmlns="http://www.w3.org/2000/svg" xmlns:xlink="http://www.w3.org/1999/xlink" x="0px" y="0px"
	 viewBox="0 0 1026.9 501.9" style="enable-background:new 0 0 1026.9 501.9;" xml:space="preserve">
<style type="text/css">
	.st0{fill:#F7931E;}
	.st1{fill:#FFFFFF;}
	.st2{display:none;}
	.st3{display:inline;}
</style>
<g>
	<path class="st0" d="M167.1,133.4h60c14.5,0,24.4,3.7,29.8,11c5.4,7.3,8.1,20.3,8.1,39V197c0,18.7-2.7,31.6-8.1,39
		c-5.4,7.3-15.3,11-29.8,11h-60V133.4z M196.8,158.1v64.2h28.6c3.7,0,6.2-1.5,7.6-4.6c1.4-3.1,2.1-7.9,2.1-14.5v-25.9
		c0-6.7-0.7-11.5-2.1-14.6c-1.4-3-3.9-4.6-7.6-4.6H196.8z"/>
	<path class="st0" d="M283.3,133.4h29.6V247h-29.6V133.4z"/>
	<path class="st0" d="M381.6,131.8c8.3,0,15.2,0.4,20.6,1.3c5.5,0.9,10,2.1,13.5,3.7c3.5,1.6,6.1,4,7.9,7.3c1.8,3.2,3,6.8,3.7,10.5
		c0.6,3.8,1,8.7,1,14.8v1.6h-27.2c0.1-0.4,0.1-1.3,0.1-2.8c-0.1-4.9-1.3-8.1-3.7-9.7c-2.4-1.5-7.8-2.3-16.2-2.3
		c-8.9,0-14.5,1-16.8,3.1c-2.3,2.1-3.4,7.2-3.4,15.4v29.9c0,6.7,0.8,11.2,2.5,13.5c1.7,2.3,4.9,3.5,9.6,3.5h28.4v-15.1h-18.1v-24.2
		h45.8V247h-57.6c-6,0-11-0.3-15-1c-4-0.6-7.6-1.8-10.8-3.6c-3.1-1.7-5.6-3.9-7.4-6.5c-1.8-2.6-3.3-6.1-4.4-10.6
		c-1.1-4.5-1.9-9.4-2.3-14.8c-0.4-5.4-0.6-12.1-0.6-20.2c0-8.7,0.2-15.7,0.5-20.9c0.3-5.3,1.2-10.3,2.5-15.2c1.3-4.8,3-8.5,5.1-11
		c2.1-2.5,5.1-4.7,9-6.7c3.9-1.9,8.5-3.2,13.7-3.8C367.2,132.1,373.7,131.8,381.6,131.8z"/>
	<path class="st0" d="M449.1,133.4h29.6V247h-29.6V133.4z"/>
	<path class="st0" d="M498.5,133.4h81.1v25.1h-51.3v20.3h48.2v25h-48.2V247h-29.8V133.4z"/>
	<path class="st0" d="M594.1,133.4h29.6V247h-29.6V133.4z"/>
	<path class="st0" d="M643.5,133.4h29.8v88h46.8V247h-76.6V133.4z"/>
	<path class="st0" d="M732.9,133.4h82v26.3h-54v15.7h52.4v23.8h-52.4V221h54.5v26h-82.4V133.4z"/>
	<path d="M166.1,261.8h20.5l32.4,77.6l33.2-77.6h19.7v96.1h-13.4v-76.2l-33.2,76.2h-13.9l-32-76.2v76.2h-13.3V261.8z"/>
	<path d="M319.4,261.8h17.5l34,96.1h-15.1l-7.8-22.9h-40.8l-8.1,22.9h-14.9L319.4,261.8z M328,276.6L311.5,323h32.4L328,276.6z"/>
	<path d="M382.8,261.8h19.5l49.5,73.9v-73.9h13.2v96.1h-17.6l-51.6-77.5v77.5h-12.9V261.8z"/>
	<path d="M511.9,261.8h17.5l34,96.1h-15.1l-7.8-22.9h-40.8l-8.1,22.9h-14.9L511.9,261.8z M520.5,276.6L504,323h32.4L520.5,276.6z"/>
	<path d="M612.8,260.4c8.1,0,14.7,0.6,19.7,1.8c5.1,1.2,8.9,3.3,11.5,6.1c2.6,2.9,4.3,6.1,5.2,9.7c0.8,3.6,1.3,8.3,1.3,14.2v1.4h-14
		c0.1-0.3,0.1-1,0.1-1.9c-0.1-4.6-0.7-8.1-1.7-10.6c-1.1-2.5-3.4-4.5-6.9-5.9c-3.5-1.5-8.7-2.2-15.3-2.2c-5.7,0-10.1,0.5-13.4,1.4
		c-3.3,0.9-5.8,2.7-7.5,5.3c-1.7,2.6-2.8,5.4-3.3,8.6c-0.5,3.2-0.7,7.7-0.7,13.5v15.4c0,10.5,1.3,17.8,3.9,21.8
		c2.6,4,8.1,5.9,16.6,5.9h28.7v-25.4h-21.8v-12.4h36.1v50.8h-43.8c-6.2,0-11.4-0.5-15.5-1.6c-4.1-1.1-7.5-2.7-10.1-4.7
		c-2.7-2.1-4.7-5.1-6-9.2c-1.4-4.1-2.3-8.6-2.7-13.4c-0.5-4.9-0.7-11.2-0.7-19c0-5.8,0.1-10.6,0.3-14.4c0.2-3.8,0.6-7.6,1.3-11.4
		s1.5-6.8,2.7-9.1c1.2-2.3,2.7-4.5,4.7-6.5c1.9-2.1,4.4-3.6,7.3-4.6c2.9-1,6.3-1.8,10.3-2.4C602.8,260.7,607.4,260.4,612.8,260.4z"
		/>
	<path d="M668.1,261.8h65.3v13.5h-50.9v25.8h49.6v12.3h-49.6v31h51.3v13.4h-65.7V261.8z"/>
	<path d="M749.5,261.8h44.9c10.5,0,18,1.8,22.7,5.4c4.7,3.6,7,10.4,7,20.3v2.9c0,7.7-1.4,13.1-4.2,16.3s-7.2,5.2-13.3,6
		c2.9,0.3,5.2,0.8,7.1,1.3c1.9,0.5,3.6,1.5,5.2,2.7c1.6,1.3,2.8,3,3.5,5.3c0.8,2.2,1.1,5,1.1,8.4v10.5c0,6.6,0.5,12.2,1.5,17h-14.8
		c-1-3.8-1.5-9-1.5-15.6v-10.5c0-4.7-1.1-8-3.3-9.9c-2.2-1.9-6.3-2.8-12.3-2.8h-29.1v38.7h-14.7V261.8z M764.1,274.6v32.8h29.1
		c5.9,0,10-1.1,12.2-3.4c2.2-2.3,3.4-6.1,3.4-11.5V289c0-5.2-1.2-8.9-3.5-11.1c-2.3-2.2-6.2-3.3-11.6-3.3H764.1z"/>
</g>
</svg>
