<?xml version="1.0" encoding="utf-8"?>
<!-- Generator: Adobe Illustrator 26.2.1, SVG Export Plug-In . SVG Version: 6.00 Build 0)  -->
<svg version="1.1" id="Layer_1" xmlns="http://www.w3.org/2000/svg" xmlns:xlink="http://www.w3.org/1999/xlink" x="0px" y="0px"
	 viewBox="0 0 1026.9 501.9" style="enable-background:new 0 0 1026.9 501.9;" xml:space="preserve">
<style type="text/css">
	.st0{fill:#F7931E;}
	.st1{fill:#FFFFFF;}
	.st2{display:none;}
	.st3{display:inline;}
</style>
<g>
	<g>
		<path class="st0" d="M191.2,75.2h59.6c14.4,0,24.2,3.6,29.6,10.9c5.4,7.3,8,20.2,8,38.7v13.5c0,18.5-2.7,31.5-8,38.7
			c-5.4,7.3-15.2,10.9-29.6,10.9h-59.6V75.2z M220.8,99.7v63.8h28.4c3.7,0,6.2-1.5,7.6-4.6c1.4-3.1,2.1-7.9,2.1-14.4v-25.7
			c0-6.6-0.7-11.5-2.1-14.5c-1.4-3-3.9-4.5-7.6-4.5H220.8z"/>
		<path class="st0" d="M306.8,75.2h29.4v112.9h-29.4V75.2z"/>
		<path class="st0" d="M404.5,73.5c8.2,0,15.1,0.4,20.5,1.3c5.5,0.9,9.9,2.1,13.4,3.7c3.5,1.6,6.1,4,7.9,7.2c1.8,3.2,3,6.7,3.6,10.5
			c0.6,3.8,1,8.7,1,14.7v1.6h-27.1c0.1-0.4,0.1-1.3,0.1-2.8c-0.1-4.9-1.3-8.1-3.7-9.6c-2.4-1.5-7.7-2.3-16.1-2.3
			c-8.8,0-14.4,1-16.7,3.1c-2.3,2.1-3.4,7.2-3.4,15.3v29.7c0,6.6,0.8,11.1,2.5,13.5c1.7,2.3,4.9,3.5,9.5,3.5h28.3v-15h-18V124H452
			v64.1h-57.3c-5.9,0-10.9-0.3-14.9-1c-4-0.6-7.6-1.8-10.7-3.6c-3.1-1.7-5.6-3.9-7.4-6.5c-1.8-2.6-3.2-6.1-4.4-10.6
			c-1.1-4.5-1.9-9.4-2.3-14.7c-0.4-5.4-0.6-12-0.6-20.1c0-8.6,0.2-15.6,0.5-20.8c0.3-5.3,1.2-10.3,2.5-15.1c1.3-4.8,3-8.5,5.1-10.9
			c2.1-2.5,5.1-4.7,8.9-6.6c3.9-1.9,8.4-3.2,13.6-3.8C390.2,73.8,396.7,73.5,404.5,73.5z"/>
		<path class="st0" d="M471.6,75.2H501v112.9h-29.4V75.2z"/>
		<path class="st0" d="M520.7,75.2h80.6v25h-51v20.2h47.9v24.8h-47.9v42.8h-29.6V75.2z"/>
		<path class="st0" d="M615.7,75.2h29.4v112.9h-29.4V75.2z"/>
		<path class="st0" d="M664.8,75.2h29.6v87.5h46.6v25.4h-76.2V75.2z"/>
		<path class="st0" d="M753.7,75.2h81.5v26.2h-53.7V117h52.1v23.6h-52.1v21.6h54.1v25.9h-82V75.2z"/>
		<path d="M191.4,201.7h20.1l31.7,76l32.5-76H295v94.1h-13.1v-74.6l-32.5,74.6h-13.6l-31.4-74.6v74.6h-13V201.7z"/>
		<path d="M340.4,201.7h17.1l33.3,94.1h-14.8l-7.7-22.4h-39.9l-7.9,22.4h-14.6L340.4,201.7z M348.8,216.2l-16.1,45.5h31.7
			L348.8,216.2z"/>
		<path d="M402.5,201.7h19.1l48.5,72.4v-72.4H483v94.1h-17.2l-50.6-75.9v75.9h-12.6V201.7z"/>
		<path d="M528.9,201.7H546l33.3,94.1h-14.7l-7.7-22.4H517l-7.9,22.4h-14.6L528.9,201.7z M537.4,216.2l-16.1,45.5H553L537.4,216.2z"
			/>
		<path d="M627.7,200.3c7.9,0,14.4,0.6,19.3,1.8c5,1.2,8.7,3.2,11.3,6c2.6,2.8,4.3,6,5.1,9.5c0.8,3.5,1.2,8.2,1.2,13.9v1.4h-13.8
			c0.1-0.3,0.1-0.9,0.1-1.9c-0.1-4.5-0.6-7.9-1.7-10.3c-1-2.4-3.3-4.4-6.8-5.8c-3.5-1.4-8.5-2.2-15-2.2c-5.5,0-9.9,0.5-13.1,1.4
			c-3.2,0.9-5.7,2.6-7.4,5.1c-1.7,2.5-2.8,5.3-3.2,8.4c-0.5,3.1-0.7,7.5-0.7,13.2V256c0,10.3,1.3,17.4,3.8,21.3
			c2.5,3.9,8,5.8,16.3,5.8h28.1v-24.9h-21.3v-12.1h35.3v49.7h-42.9c-6.1,0-11.2-0.5-15.2-1.6c-4-1.1-7.3-2.6-9.9-4.6
			c-2.6-2-4.6-5-5.9-9c-1.3-4-2.2-8.4-2.7-13.1c-0.5-4.8-0.7-11-0.7-18.7c0-5.7,0.1-10.4,0.3-14.1c0.2-3.7,0.6-7.4,1.2-11.2
			c0.6-3.7,1.5-6.7,2.7-8.9c1.2-2.2,2.7-4.4,4.6-6.4c1.9-2,4.3-3.5,7.1-4.5c2.9-1,6.2-1.8,10-2.4C618,200.6,622.5,200.3,627.7,200.3
			z"/>
		<path d="M681.9,201.7h64v13.3H696v25.3h48.6v12H696v30.4h50.2v13.1h-64.3V201.7z"/>
		<path d="M761.6,201.7h44c10.2,0,17.7,1.8,22.2,5.3c4.6,3.6,6.9,10.2,6.9,19.8v2.9c0,7.5-1.4,12.8-4.1,15.9
			c-2.7,3.1-7.1,5.1-13,5.9c2.8,0.3,5.1,0.8,6.9,1.3c1.8,0.5,3.5,1.4,5.1,2.7c1.6,1.2,2.7,3,3.5,5.1c0.7,2.2,1.1,4.9,1.1,8.2v10.3
			c0,6.4,0.5,12,1.5,16.6h-14.5c-1-3.7-1.5-8.8-1.5-15.2v-10.3c0-4.6-1.1-7.9-3.2-9.7c-2.1-1.8-6.2-2.7-12-2.7H776v37.9h-14.4V201.7
			z M776,214.2v32.1h28.5c5.8,0,9.8-1.1,12-3.3c2.2-2.2,3.3-6,3.3-11.3v-3.3c0-5.1-1.1-8.8-3.4-10.9c-2.3-2.1-6.1-3.2-11.3-3.2H776z
			"/>
	</g>
	<g>
		<path class="st0" d="M820.3,428.3H206.6c-8.5,0-15.4-6.9-15.4-15.4v-64.4c0-8.5,6.9-15.4,15.4-15.4h613.7
			c8.5,0,15.4,6.9,15.4,15.4v64.4C835.7,421.4,828.8,428.3,820.3,428.3z"/>
		<g>
			<path class="st1" d="M204.8,346.5h17.7V396c0,2,0.7,3.3,2.1,4c1.4,0.7,4.3,1,8.8,1s7.3-0.3,8.6-0.9c1.3-0.6,1.9-2,1.9-4v-49.5
				h17.9V396c0,4.2-0.3,7.5-1,9.9c-0.7,2.4-2.1,4.4-4.2,6c-2.1,1.6-5,2.6-8.5,3.2c-3.5,0.5-8.3,0.8-14.4,0.8
				c-6.2,0-11.1-0.3-14.7-0.8c-3.6-0.5-6.5-1.6-8.7-3.2c-2.2-1.6-3.7-3.6-4.4-6c-0.7-2.4-1.1-5.7-1.1-9.9V346.5z"/>
			<path class="st1" d="M272.8,346.5H310c3.9,0,7.1,0.3,9.4,1c2.4,0.7,4.2,2,5.6,3.8c1.3,1.9,2.2,4.1,2.6,6.6
				c0.4,2.6,0.6,6,0.6,10.4v4.2c0,4.1-0.2,7.4-0.7,9.8c-0.5,2.4-1.4,4.6-2.8,6.4c-1.4,1.8-3.4,3.1-5.9,3.8
				c-2.6,0.7-5.9,1.1-10.2,1.1h-18v21.3h-18V346.5z M290.8,361.7v17.3h16.6c1.3,0,2.2-0.4,2.6-1.3c0.4-0.8,0.6-2.2,0.6-4.1v-5.7
				c0-2.2-0.2-3.8-0.6-4.8c-0.4-1-1.3-1.4-2.6-1.4H290.8z"/>
			<path class="st1" d="M332.9,346.5h52.5V362h-17.4v53.1h-17.8V362h-17.3V346.5z"/>
			<path class="st1" d="M421.2,345.5c4.8,0,8.8,0.2,12.1,0.6c3.2,0.4,6,1.2,8.4,2.3c2.4,1.2,4.2,2.5,5.6,4.1
				c1.3,1.5,2.4,3.8,3.1,6.7c0.8,2.9,1.2,6,1.4,9.1c0.2,3.2,0.3,7.3,0.3,12.5s-0.1,9.3-0.3,12.5c-0.2,3.2-0.7,6.2-1.5,9.1
				c-0.8,2.9-1.8,5.1-3.1,6.6c-1.3,1.5-3.1,2.8-5.5,4c-2.4,1.2-5.2,1.9-8.4,2.3c-3.2,0.4-7.2,0.5-12.1,0.5c-4.9,0-8.9-0.2-12.1-0.5
				c-3.2-0.4-6-1.1-8.4-2.3c-2.4-1.2-4.2-2.5-5.5-4c-1.3-1.5-2.3-3.7-3-6.6c-0.8-2.9-1.2-6-1.4-9.1c-0.2-3.1-0.3-7.3-0.3-12.5
				c0-3.9,0-7.2,0.1-9.7c0.1-2.6,0.3-5.1,0.7-7.7c0.4-2.6,0.8-4.7,1.4-6.2c0.6-1.6,1.4-3.1,2.5-4.6c1.1-1.5,2.3-2.6,3.8-3.4
				c1.4-0.8,3.3-1.5,5.5-2.1c2.2-0.6,4.6-1.1,7.3-1.3C414.5,345.6,417.6,345.5,421.2,345.5z M421.2,360.2c-5.4,0-8.9,0.8-10.5,2.5
				c-1.6,1.7-2.3,4.8-2.3,9.2v16.2c0,5.1,0.8,8.6,2.3,10.4c1.6,1.8,5.1,2.8,10.5,2.8c5.4,0,8.8-0.9,10.4-2.8
				c1.6-1.9,2.3-5.3,2.3-10.4V372c0-4.5-0.8-7.5-2.3-9.2C430,361.1,426.6,360.2,421.2,360.2z"/>
			<path class="st1" d="M510,346.5h17.4v68.6h-17.3v-49.2l-10.7,10l-9.4-10L510,346.5z"/>
			<path class="st1" d="M572.4,345.5c4.1,0,7.5,0.2,10.3,0.6c2.7,0.4,5.1,1.2,7.2,2.3c2.1,1.1,3.7,2.5,4.8,4
				c1.1,1.5,2.1,3.7,2.8,6.6c0.7,2.9,1.1,5.9,1.4,9.2c0.2,3.3,0.3,7.4,0.3,12.6c0,5.1-0.1,9.3-0.3,12.5c-0.2,3.2-0.7,6.3-1.4,9.1
				c-0.7,2.9-1.6,5.1-2.8,6.6c-1.1,1.5-2.8,2.9-4.8,4c-2.1,1.1-4.5,1.9-7.2,2.3c-2.7,0.4-6.2,0.6-10.3,0.6c-3.1,0-5.7-0.1-8-0.3
				c-2.3-0.2-4.3-0.6-6.2-1.2c-1.9-0.6-3.4-1.3-4.7-2.1c-1.3-0.8-2.4-1.9-3.3-3.3c-1-1.4-1.7-3-2.3-4.6c-0.5-1.6-1-3.7-1.3-6.2
				c-0.3-2.5-0.5-5.1-0.6-7.7c-0.1-2.6-0.1-5.9-0.1-9.7c0-4.4,0.1-8,0.2-10.9c0.1-2.9,0.4-5.7,0.9-8.4c0.4-2.7,1.1-4.9,1.9-6.5
				c0.8-1.6,1.9-3.1,3.1-4.4c1.2-1.4,2.8-2.3,4.8-3c2-0.6,4.2-1.1,6.7-1.4C565.9,345.7,568.9,345.5,572.4,345.5z M572.4,359.8
				c-3.9,0-6.5,0.9-7.7,2.6c-1.2,1.7-1.8,5-1.8,10v16.3c0,5.1,0.6,8.5,1.8,10.3c1.2,1.8,3.8,2.8,7.7,2.8c4,0,6.6-0.9,7.8-2.8
				c1.2-1.9,1.9-5.3,1.9-10.3v-16.3c0-4.9-0.6-8.3-1.9-10C579,360.6,576.4,359.8,572.4,359.8z"/>
			<path class="st1" d="M631.1,345.5c4.1,0,7.5,0.2,10.3,0.6c2.7,0.4,5.1,1.2,7.2,2.3c2.1,1.1,3.7,2.5,4.8,4
				c1.1,1.5,2.1,3.7,2.8,6.6c0.7,2.9,1.1,5.9,1.4,9.2c0.2,3.3,0.3,7.4,0.3,12.6c0,5.1-0.1,9.3-0.3,12.5c-0.2,3.2-0.7,6.3-1.4,9.1
				c-0.7,2.9-1.6,5.1-2.8,6.6c-1.1,1.5-2.8,2.9-4.8,4c-2.1,1.1-4.5,1.9-7.2,2.3c-2.7,0.4-6.2,0.6-10.3,0.6c-3.1,0-5.7-0.1-8-0.3
				c-2.3-0.2-4.3-0.6-6.2-1.2c-1.9-0.6-3.4-1.3-4.7-2.1c-1.3-0.8-2.4-1.9-3.3-3.3c-1-1.4-1.7-3-2.3-4.6c-0.5-1.6-1-3.7-1.3-6.2
				c-0.3-2.5-0.5-5.1-0.6-7.7c-0.1-2.6-0.1-5.9-0.1-9.7c0-4.4,0.1-8,0.2-10.9c0.1-2.9,0.4-5.7,0.9-8.4c0.4-2.7,1.1-4.9,1.9-6.5
				c0.8-1.6,1.9-3.1,3.1-4.4c1.2-1.4,2.8-2.3,4.8-3c2-0.6,4.2-1.1,6.7-1.4C624.6,345.7,627.6,345.5,631.1,345.5z M631.1,359.8
				c-3.9,0-6.5,0.9-7.7,2.6c-1.2,1.7-1.8,5-1.8,10v16.3c0,5.1,0.6,8.5,1.8,10.3c1.2,1.8,3.8,2.8,7.7,2.8c4,0,6.6-0.9,7.8-2.8
				c1.2-1.9,1.9-5.3,1.9-10.3v-16.3c0-4.9-0.6-8.3-1.9-10C637.7,360.6,635.1,359.8,631.1,359.8z"/>
			<path class="st1" d="M723.3,345.5c5,0,9.2,0.3,12.5,0.8c3.3,0.5,6,1.3,8.1,2.3c2.1,1,3.7,2.4,4.8,4.4c1.1,2,1.8,4.1,2.2,6.4
				c0.4,2.3,0.6,5.3,0.6,8.9v1h-16.4c0.1-0.2,0.1-0.8,0.1-1.7c-0.1-3-0.8-4.9-2.3-5.8c-1.4-0.9-4.7-1.4-9.8-1.4
				c-5.4,0-8.7,0.6-10.1,1.9c-1.4,1.3-2.1,4.4-2.1,9.3v18.1c0,4,0.5,6.8,1.5,8.2c1,1.4,2.9,2.1,5.8,2.1h17.2v-9.1h-10.9v-14.6h27.6
				v38.9h-34.8c-3.6,0-6.6-0.2-9.1-0.6c-2.4-0.4-4.6-1.1-6.5-2.2c-1.9-1.1-3.4-2.4-4.5-3.9c-1.1-1.6-2-3.7-2.7-6.4
				c-0.7-2.7-1.2-5.7-1.4-8.9c-0.2-3.3-0.4-7.3-0.4-12.2c0-5.2,0.1-9.5,0.3-12.6c0.2-3.2,0.7-6.2,1.5-9.2c0.8-2.9,1.8-5.1,3.1-6.6
				c1.3-1.5,3.1-2.8,5.4-4s5.1-1.9,8.3-2.3C714.6,345.7,718.6,345.5,723.3,345.5z"/>
			<path class="st1" d="M763.5,346.5H803c3.3,0,6,0.4,8.4,1.1c2.3,0.8,4.1,1.6,5.3,2.7c1.2,1,2.1,2.4,2.8,4.2
				c0.7,1.7,1.1,3.3,1.2,4.7c0.1,1.4,0.2,3.1,0.2,5.1c0,4.6-0.6,8-1.9,10.3c-1.3,2.3-3.6,3.8-7,4.6c6.8,0.7,10.2,6.3,10.2,16.7
				c0,1.7,0,3.1-0.1,4.3c-0.1,1.2-0.2,2.5-0.5,3.9c-0.3,1.4-0.7,2.7-1.2,3.6c-0.5,1-1.2,2-2.2,3c-1,1-2.1,1.8-3.4,2.4
				c-1.3,0.6-3,1.1-4.9,1.4c-2,0.4-4.2,0.6-6.7,0.6h-39.6V346.5z M781.4,361.3v12.2h18.4c1.4,0,2.4-0.4,2.8-1.1
				c0.4-0.8,0.6-2.3,0.6-4.7v-1.3c0-2-0.2-3.3-0.7-4.1c-0.5-0.7-1.4-1.1-2.8-1.1H781.4z M781.4,386.1v14.3h18.5
				c1.8,0,2.9-0.3,3.4-0.9c0.5-0.6,0.7-2,0.7-4.1v-3.3c0-2.3-0.3-3.9-0.8-4.8c-0.5-0.8-1.6-1.3-3.3-1.3H781.4z"/>
		</g>
	</g>
</g>
</svg>
