<?xml version="1.0" encoding="utf-8"?>
<!-- Generator: Adobe Illustrator 26.2.1, SVG Export Plug-In . SVG Version: 6.00 Build 0)  -->
<svg version="1.1" id="Layer_1" xmlns="http://www.w3.org/2000/svg" xmlns:xlink="http://www.w3.org/1999/xlink" x="0px" y="0px"
	 viewBox="0 0 1026.9 501.9" style="enable-background:new 0 0 1026.9 501.9;" xml:space="preserve">
<style type="text/css">
	.st0{fill:#F7931E;}
	.st1{fill:#FFFFFF;}
	.st2{display:none;}
	.st3{display:inline;}
</style>
<g>
	<path class="st0" d="M395.7,49c-27.7,0-50.5,22.8-50.5,50.5v303c0,27.7,22.8,50.5,50.5,50.5H665h16.8v-16.8V65.8V49H665H395.7z
		 M395.7,82.6h252.5v269.3H395.7c-5.9,0-11.5,1.2-16.8,3.2V99.4C378.8,89.9,386.1,82.6,395.7,82.6z M429.3,133.1v33.7h185.1v-33.7
		H429.3z M395.7,385.6h252.5v33.7H395.7c-9.5,0-16.8-7.3-16.8-16.8C378.8,392.9,386.1,385.6,395.7,385.6z"/>
	<g>
		<path class="st0" d="M468.8,188.4l71.3,139.4H438c-4.8,0-8.6-3.9-8.6-8.6V197c0-4.8,3.9-8.6,8.6-8.6H468.8z"/>
		<path class="st0" d="M614.5,240.4v35.2c0,28.2-22.8,51.4-50.8,52.1l-71.3-139.4h70C591,188.4,614.5,211.8,614.5,240.4z"/>
	</g>
</g>
</svg>
