<?xml version="1.0" encoding="utf-8"?>
<!-- Generator: Adobe Illustrator 26.2.1, SVG Export Plug-In . SVG Version: 6.00 Build 0)  -->
<svg version="1.1" id="Layer_1" xmlns="http://www.w3.org/2000/svg" xmlns:xlink="http://www.w3.org/1999/xlink" x="0px" y="0px"
	 viewBox="0 0 1026.9 501.9" style="enable-background:new 0 0 1026.9 501.9;" xml:space="preserve">
<style type="text/css">
	.st0{fill:#F7931E;}
	.st1{fill:#FFFFFF;}
	.st2{display:none;}
	.st3{display:inline;}
</style>
<g>
	<g>
		<path class="st0" d="M292,139.7h60c14.5,0,24.4,3.7,29.8,11c5.4,7.3,8.1,20.3,8.1,39v13.6c0,18.7-2.7,31.6-8.1,39
			c-5.4,7.3-15.3,11-29.8,11h-60V139.7z M321.8,164.4v64.2h28.6c3.7,0,6.2-1.5,7.6-4.6c1.4-3.1,2.1-7.9,2.1-14.5v-25.9
			c0-6.7-0.7-11.5-2.1-14.6c-1.4-3-3.9-4.6-7.6-4.6H321.8z"/>
		<path class="st0" d="M408.3,139.7h29.6v113.6h-29.6V139.7z"/>
		<path class="st0" d="M506.6,138c8.3,0,15.2,0.4,20.6,1.3c5.5,0.9,10,2.1,13.5,3.7c3.5,1.6,6.1,4,7.9,7.3c1.8,3.2,3,6.8,3.7,10.5
			c0.6,3.8,1,8.7,1,14.8v1.6H526c0.1-0.4,0.1-1.3,0.1-2.8c-0.1-4.9-1.3-8.1-3.7-9.7c-2.4-1.5-7.8-2.3-16.2-2.3
			c-8.9,0-14.5,1-16.8,3.1c-2.3,2.1-3.4,7.2-3.4,15.4V211c0,6.7,0.8,11.2,2.5,13.5c1.7,2.3,4.9,3.5,9.6,3.5h28.4V213h-18.1v-24.2
			h45.8v64.5h-57.6c-6,0-11-0.3-15-1c-4-0.6-7.6-1.8-10.8-3.6c-3.1-1.7-5.6-3.9-7.4-6.5c-1.8-2.6-3.3-6.1-4.4-10.6
			c-1.1-4.5-1.9-9.4-2.3-14.8c-0.4-5.4-0.6-12.1-0.6-20.2c0-8.7,0.2-15.7,0.5-20.9c0.3-5.3,1.2-10.3,2.5-15.2c1.3-4.8,3-8.5,5.1-11
			c2.1-2.5,5.1-4.7,9-6.7c3.9-1.9,8.5-3.2,13.7-3.8S498.7,138,506.6,138z"/>
		<path class="st0" d="M574.1,139.7h29.6v113.6h-29.6V139.7z"/>
		<path class="st0" d="M623.4,139.7h81.1v25.1h-51.3v20.3h48.2v25h-48.2v43.1h-29.8V139.7z"/>
		<path class="st0" d="M719,139.7h29.6v113.6H719V139.7z"/>
		<path class="st0" d="M768.4,139.7h29.8v88H845v25.6h-76.6V139.7z"/>
		<path class="st0" d="M857.9,139.7h82V166h-54v15.7h52.4v23.8h-52.4v21.7h54.5v26h-82.4V139.7z"/>
		<path d="M291.1,268h20.5l32.4,77.6l33.2-77.6h19.7v96.1h-13.4v-76.2l-33.2,76.2h-13.9l-32-76.2v76.2h-13.3V268z"/>
		<path d="M444.3,268h17.5l34,96.1h-15.1l-7.8-22.9h-40.8l-8.1,22.9h-14.9L444.3,268z M453,282.8l-16.5,46.5h32.4L453,282.8z"/>
		<path d="M507.8,268h19.5l49.5,73.9V268h13.2v96.1h-17.6l-51.6-77.5v77.5h-12.9V268z"/>
		<path d="M636.9,268h17.5l34,96.1h-15.1l-7.8-22.9h-40.8l-8.1,22.9h-14.9L636.9,268z M645.5,282.8L629,329.3h32.4L645.5,282.8z"/>
		<path d="M737.7,266.6c8.1,0,14.7,0.6,19.7,1.8c5.1,1.2,8.9,3.3,11.5,6.1c2.6,2.9,4.3,6.1,5.2,9.7c0.8,3.6,1.3,8.3,1.3,14.2v1.4
			h-14c0.1-0.3,0.1-1,0.1-1.9c-0.1-4.6-0.7-8.1-1.7-10.6c-1.1-2.5-3.4-4.5-6.9-5.9c-3.5-1.5-8.7-2.2-15.3-2.2
			c-5.7,0-10.1,0.5-13.4,1.4c-3.3,0.9-5.8,2.7-7.5,5.3c-1.7,2.6-2.8,5.4-3.3,8.6c-0.5,3.2-0.7,7.7-0.7,13.5v15.4
			c0,10.5,1.3,17.8,3.9,21.8c2.6,4,8.1,5.9,16.6,5.9h28.7v-25.4h-21.8v-12.4h36.1v50.8h-43.8c-6.2,0-11.4-0.5-15.5-1.6
			c-4.1-1.1-7.5-2.7-10.1-4.7c-2.7-2.1-4.7-5.1-6-9.2c-1.4-4.1-2.3-8.6-2.7-13.4c-0.5-4.9-0.7-11.2-0.7-19c0-5.8,0.1-10.6,0.3-14.4
			c0.2-3.8,0.6-7.6,1.3-11.4s1.5-6.8,2.7-9.1c1.2-2.3,2.7-4.5,4.7-6.5c1.9-2.1,4.4-3.6,7.3-4.6c2.9-1,6.3-1.8,10.3-2.4
			C727.8,266.9,732.4,266.6,737.7,266.6z"/>
		<path d="M793,268h65.3v13.5h-50.9v25.8h49.6v12.3h-49.6v31h51.3v13.4H793V268z"/>
		<path d="M874.4,268h44.9c10.5,0,18,1.8,22.7,5.4c4.7,3.6,7,10.4,7,20.3v2.9c0,7.7-1.4,13.1-4.2,16.3s-7.2,5.2-13.3,6
			c2.9,0.3,5.2,0.8,7.1,1.3c1.9,0.5,3.6,1.5,5.2,2.7c1.6,1.3,2.8,3,3.5,5.3c0.8,2.2,1.1,5,1.1,8.4v10.5c0,6.6,0.5,12.2,1.5,17h-14.8
			c-1-3.8-1.5-9-1.5-15.6V338c0-4.7-1.1-8-3.3-9.9c-2.2-1.9-6.3-2.8-12.3-2.8h-29.1v38.7h-14.7V268z M889.1,280.8v32.8h29.1
			c5.9,0,10-1.1,12.2-3.4c2.2-2.3,3.4-6.1,3.4-11.5v-3.4c0-5.2-1.2-8.9-3.5-11.1c-2.3-2.2-6.2-3.3-11.6-3.3H889.1z"/>
	</g>
	<g>
		<g>
			<path class="st0" d="M93.9,138.9c-15.4,0-28,12.6-28,28v168c0,15.4,12.6,28,28,28h149.3h9.3v-9.3V148.3v-9.3h-9.3H93.9z
				 M93.9,157.6h140v149.3h-140c-3.3,0-6.4,0.7-9.3,1.7V166.9C84.6,161.7,88.7,157.6,93.9,157.6z M112.6,185.6v18.7h102.7v-18.7
				H112.6z M93.9,325.6h140v18.7h-140c-5.3,0-9.3-4.1-9.3-9.3C84.6,329.6,88.7,325.6,93.9,325.6z"/>
		</g>
		<g>
			<g>
				<path class="st0" d="M134.5,216.2l39.5,77.3h-56.6c-2.6,0-4.8-2.2-4.8-4.8V221c0-2.6,2.2-4.8,4.8-4.8H134.5z"/>
			</g>
			<g>
				<path class="st0" d="M215.3,245.1v19.5c0,15.6-12.6,28.5-28.2,28.9l-39.5-77.3h38.8C202.3,216.2,215.3,229.2,215.3,245.1z"/>
			</g>
		</g>
	</g>
</g>
</svg>
