<?xml version="1.0" encoding="utf-8"?>
<!-- Generator: Adobe Illustrator 26.2.1, SVG Export Plug-In . SVG Version: 6.00 Build 0)  -->
<svg version="1.1" id="Layer_1" xmlns="http://www.w3.org/2000/svg" xmlns:xlink="http://www.w3.org/1999/xlink" x="0px" y="0px"
	 viewBox="0 0 1026.9 501.9" style="enable-background:new 0 0 1026.9 501.9;" xml:space="preserve">
<style type="text/css">
	.st0{fill:#F7931E;}
	.st1{fill:#FFFFFF;}
	.st2{display:none;}
	.st3{display:inline;}
</style>
<g>
	<g>
		<path class="st1" d="M275.4,133.4h60c14.5,0,24.4,3.7,29.8,11c5.4,7.3,8.1,20.3,8.1,39V197c0,18.7-2.7,31.6-8.1,39
			c-5.4,7.3-15.3,11-29.8,11h-60V133.4z M305.2,158.1v64.2h28.6c3.7,0,6.2-1.5,7.6-4.6c1.4-3.1,2.1-7.9,2.1-14.5v-25.9
			c0-6.7-0.7-11.5-2.1-14.6c-1.4-3-3.9-4.6-7.6-4.6H305.2z"/>
		<path class="st1" d="M391.6,133.4h29.6V247h-29.6V133.4z"/>
		<path class="st1" d="M489.9,131.8c8.3,0,15.2,0.4,20.6,1.3c5.5,0.9,10,2.1,13.5,3.7c3.5,1.6,6.1,4,7.9,7.3c1.8,3.2,3,6.8,3.7,10.5
			c0.6,3.8,1,8.7,1,14.8v1.6h-27.2c0.1-0.4,0.1-1.3,0.1-2.8c-0.1-4.9-1.3-8.1-3.7-9.7c-2.4-1.5-7.8-2.3-16.2-2.3
			c-8.9,0-14.5,1-16.8,3.1c-2.3,2.1-3.4,7.2-3.4,15.4v29.9c0,6.7,0.8,11.2,2.5,13.5c1.7,2.3,4.9,3.5,9.6,3.5H510v-15.1h-18.1v-24.2
			h45.8V247h-57.6c-6,0-11-0.3-15-1c-4-0.6-7.6-1.8-10.8-3.6c-3.1-1.7-5.6-3.9-7.4-6.5c-1.8-2.6-3.3-6.1-4.4-10.6
			c-1.1-4.5-1.9-9.4-2.3-14.8c-0.4-5.4-0.6-12.1-0.6-20.2c0-8.7,0.2-15.7,0.5-20.9c0.3-5.3,1.2-10.3,2.5-15.2c1.3-4.8,3-8.5,5.1-11
			c2.1-2.5,5.1-4.7,9-6.7c3.9-1.9,8.5-3.2,13.7-3.8C475.5,132.1,482.1,131.8,489.9,131.8z"/>
		<path class="st1" d="M557.4,133.4H587V247h-29.6V133.4z"/>
		<path class="st1" d="M606.8,133.4h81.1v25.1h-51.3v20.3h48.2v25h-48.2V247h-29.8V133.4z"/>
		<path class="st1" d="M702.4,133.4H732V247h-29.6V133.4z"/>
		<path class="st1" d="M751.8,133.4h29.8v88h46.8V247h-76.6V133.4z"/>
		<path class="st1" d="M841.3,133.4h82v26.3h-54v15.7h52.4v23.8h-52.4V221h54.5v26h-82.4V133.4z"/>
		<path d="M274.4,261.8h20.5l32.4,77.6l33.2-77.6h19.7v96.1h-13.4v-76.2l-33.2,76.2h-13.9l-32-76.2v76.2h-13.3V261.8z"/>
		<path d="M427.7,261.8h17.5l34,96.1h-15.1l-7.8-22.9h-40.8l-8.1,22.9h-14.9L427.7,261.8z M436.3,276.6L419.9,323h32.4L436.3,276.6z
			"/>
		<path d="M491.1,261.8h19.5l49.5,73.9v-73.9h13.2v96.1h-17.6L504,280.4v77.5h-12.9V261.8z"/>
		<path d="M620.2,261.8h17.5l34,96.1h-15.1l-7.8-22.9h-40.8l-8.1,22.9H585L620.2,261.8z M628.8,276.6L612.4,323h32.4L628.8,276.6z"
			/>
		<path d="M721.1,260.4c8.1,0,14.7,0.6,19.7,1.8c5.1,1.2,8.9,3.3,11.5,6.1c2.6,2.9,4.3,6.1,5.2,9.7c0.8,3.6,1.3,8.3,1.3,14.2v1.4
			h-14c0.1-0.3,0.1-1,0.1-1.9c-0.1-4.6-0.7-8.1-1.7-10.6c-1.1-2.5-3.4-4.5-6.9-5.9c-3.5-1.5-8.7-2.2-15.3-2.2
			c-5.7,0-10.1,0.5-13.4,1.4c-3.3,0.9-5.8,2.7-7.5,5.3c-1.7,2.6-2.8,5.4-3.3,8.6c-0.5,3.2-0.7,7.7-0.7,13.5v15.4
			c0,10.5,1.3,17.8,3.9,21.8c2.6,4,8.1,5.9,16.6,5.9h28.7v-25.4h-21.8v-12.4h36.1v50.8h-43.8c-6.2,0-11.4-0.5-15.5-1.6
			c-4.1-1.1-7.5-2.7-10.1-4.7c-2.7-2.1-4.7-5.1-6-9.2c-1.4-4.1-2.3-8.6-2.7-13.4c-0.5-4.9-0.7-11.2-0.7-19c0-5.8,0.1-10.6,0.3-14.4
			c0.2-3.8,0.6-7.6,1.3-11.4s1.5-6.8,2.7-9.1c1.2-2.3,2.7-4.5,4.7-6.5c1.9-2.1,4.4-3.6,7.3-4.6c2.9-1,6.3-1.8,10.3-2.4
			C711.2,260.7,715.8,260.4,721.1,260.4z"/>
		<path d="M776.4,261.8h65.3v13.5h-50.9v25.8h49.6v12.3h-49.6v31h51.3v13.4h-65.7V261.8z"/>
		<path d="M857.8,261.8h44.9c10.5,0,18,1.8,22.7,5.4c4.7,3.6,7,10.4,7,20.3v2.9c0,7.7-1.4,13.1-4.2,16.3s-7.2,5.2-13.3,6
			c2.9,0.3,5.2,0.8,7.1,1.3c1.9,0.5,3.6,1.5,5.2,2.7c1.6,1.3,2.8,3,3.5,5.3c0.8,2.2,1.1,5,1.1,8.4v10.5c0,6.6,0.5,12.2,1.5,17h-14.8
			c-1-3.8-1.5-9-1.5-15.6v-10.5c0-4.7-1.1-8-3.3-9.9c-2.2-1.9-6.3-2.8-12.3-2.8h-29.1v38.7h-14.7V261.8z M872.5,274.6v32.8h29.1
			c5.9,0,10-1.1,12.2-3.4c2.2-2.3,3.4-6.1,3.4-11.5V289c0-5.2-1.2-8.9-3.5-11.1c-2.3-2.2-6.2-3.3-11.6-3.3H872.5z"/>
	</g>
	<g>
		<g>
			<path class="st1" d="M77.3,132.7c-15.4,0-28,12.6-28,28v168c0,15.4,12.6,28,28,28h149.3h9.3v-9.3V142v-9.3h-9.3H77.3z
				 M77.3,151.4h140v149.3h-140c-3.3,0-6.4,0.7-9.3,1.7V160.7C68,155.4,72,151.4,77.3,151.4z M96,179.4V198h102.7v-18.7H96z
				 M77.3,319.4h140V338h-140c-5.3,0-9.3-4.1-9.3-9.3C68,323.4,72,319.4,77.3,319.4z"/>
		</g>
		<g>
			<g>
				<path class="st1" d="M117.9,210l39.5,77.3h-56.6c-2.6,0-4.8-2.2-4.8-4.8v-67.7c0-2.6,2.2-4.8,4.8-4.8H117.9z"/>
			</g>
			<g>
				<path class="st1" d="M198.6,238.9v19.5c0,15.6-12.6,28.5-28.2,28.9L130.9,210h38.8C185.6,210,198.6,223,198.6,238.9z"/>
			</g>
		</g>
	</g>
</g>
</svg>
